<?xml version="1.0" encoding="utf-8"?>
<!-- Generator: Adobe Illustrator 24.3.0, SVG Export Plug-In . SVG Version: 6.00 Build 0)  -->
<svg version="1.0" id="katman_1" xmlns="http://www.w3.org/2000/svg" xmlns:xlink="http://www.w3.org/1999/xlink" x="0px" y="0px"
	 viewBox="0 0 841.89 595.28" style="enable-background:new 0 0 841.89 595.28;" xml:space="preserve">
<style type="text/css">
	.st0{fill:#1D1D1B;}
	.st1{clip-path:url(#SVGID_2_);}
	.st2{fill:url(#SVGID_3_);}
	.st3{fill:url(#SVGID_4_);}
</style>
<path class="st0" d="M256.06,330.78c-0.53,0-1.03-0.2-1.49-0.6c-0.4-0.46-0.6-0.96-0.6-1.49c0-0.4,0.03-0.7,0.1-0.89l23.36-63.83
	c0.2-0.8,0.63-1.46,1.29-1.99c0.66-0.53,1.52-0.8,2.59-0.8h14.71c1.06,0,1.92,0.27,2.59,0.8c0.66,0.53,1.09,1.19,1.29,1.99
	l23.27,63.83l0.2,0.89c0,0.53-0.23,1.03-0.7,1.49c-0.4,0.4-0.89,0.6-1.49,0.6h-12.23c-1.59,0-2.65-0.7-3.18-2.09l-3.88-10.14h-26.55
	l-3.78,10.14c-0.53,1.39-1.62,2.09-3.28,2.09H256.06z M297.91,304.23l-9.25-26.25l-9.25,26.25H297.91z"/>
<path class="st0" d="M345.86,331.77c-5.37,0-9.88-0.76-13.52-2.29c-3.58-1.52-6.23-3.35-7.95-5.47c-1.72-2.12-2.58-4.01-2.58-5.67
	c0-0.66,0.23-1.19,0.7-1.59c0.53-0.46,1.09-0.7,1.69-0.7h11.33c0.4,0,0.76,0.17,1.09,0.5c0.8,0.53,1.39,0.96,1.79,1.29
	c1.46,1.06,2.72,1.86,3.78,2.39c1.13,0.46,2.49,0.7,4.08,0.7c1.92,0,3.48-0.36,4.67-1.09c1.26-0.8,1.89-1.89,1.89-3.28
	c0-1.13-0.33-2.02-0.99-2.68c-0.6-0.66-1.79-1.29-3.58-1.89c-1.79-0.66-4.51-1.36-8.15-2.09c-5.5-1.13-9.74-2.95-12.73-5.47
	c-2.92-2.58-4.37-6.03-4.37-10.34c0-2.72,0.86-5.3,2.58-7.75c1.72-2.45,4.28-4.44,7.66-5.97c3.45-1.52,7.52-2.29,12.23-2.29
	c4.71,0,8.82,0.73,12.33,2.19c3.51,1.46,6.16,3.25,7.95,5.37c1.86,2.06,2.78,3.94,2.78,5.67c0,0.6-0.23,1.13-0.7,1.59
	c-0.4,0.46-0.89,0.7-1.49,0.7h-10.34c-0.53,0-1.03-0.17-1.49-0.5c-0.86-0.46-1.62-0.96-2.29-1.49c-1.13-0.86-2.19-1.52-3.18-1.99
	c-0.99-0.46-2.22-0.7-3.68-0.7c-1.72,0-3.12,0.4-4.18,1.19c-0.99,0.8-1.49,1.82-1.49,3.08c0,0.99,0.26,1.82,0.8,2.49
	c0.6,0.66,1.79,1.33,3.58,1.99c1.86,0.6,4.57,1.23,8.15,1.89c6.43,1.13,11.1,3.12,14.02,5.97c2.98,2.85,4.47,6.2,4.47,10.04
	c0,4.9-2.19,8.85-6.56,11.83C359.78,330.31,353.69,331.77,345.86,331.77z"/>
<path class="st0" d="M395.3,331.77c-5.37,0-9.88-0.76-13.52-2.29c-3.58-1.52-6.23-3.35-7.95-5.47c-1.72-2.12-2.58-4.01-2.58-5.67
	c0-0.66,0.23-1.19,0.7-1.59c0.53-0.46,1.09-0.7,1.69-0.7h11.33c0.4,0,0.76,0.17,1.09,0.5c0.8,0.53,1.39,0.96,1.79,1.29
	c1.46,1.06,2.72,1.86,3.78,2.39c1.13,0.46,2.49,0.7,4.08,0.7c1.92,0,3.48-0.36,4.67-1.09c1.26-0.8,1.89-1.89,1.89-3.28
	c0-1.13-0.33-2.02-0.99-2.68c-0.6-0.66-1.79-1.29-3.58-1.89c-1.79-0.66-4.51-1.36-8.15-2.09c-5.5-1.13-9.74-2.95-12.73-5.47
	c-2.92-2.58-4.37-6.03-4.37-10.34c0-2.72,0.86-5.3,2.58-7.75c1.72-2.45,4.28-4.44,7.66-5.97c3.45-1.52,7.52-2.29,12.23-2.29
	c4.71,0,8.82,0.73,12.33,2.19c3.51,1.46,6.16,3.25,7.95,5.37c1.86,2.06,2.78,3.94,2.78,5.67c0,0.6-0.23,1.13-0.7,1.59
	c-0.4,0.46-0.89,0.7-1.49,0.7h-10.34c-0.53,0-1.03-0.17-1.49-0.5c-0.86-0.46-1.62-0.96-2.29-1.49c-1.13-0.86-2.19-1.52-3.18-1.99
	c-0.99-0.46-2.22-0.7-3.68-0.7c-1.72,0-3.12,0.4-4.18,1.19c-0.99,0.8-1.49,1.82-1.49,3.08c0,0.99,0.26,1.82,0.8,2.49
	c0.6,0.66,1.79,1.33,3.58,1.99c1.86,0.6,4.57,1.23,8.15,1.89c6.43,1.13,11.1,3.12,14.02,5.97c2.98,2.85,4.47,6.2,4.47,10.04
	c0,4.9-2.19,8.85-6.56,11.83C409.22,330.31,403.12,331.77,395.3,331.77z"/>
<path class="st0" d="M447.31,331.77c-7.95,0-14.22-2.15-18.79-6.46c-4.57-4.31-6.96-10.57-7.16-18.79v-3.48
	c0.27-7.82,2.68-13.92,7.26-18.29c4.64-4.44,10.84-6.66,18.59-6.66c5.63,0,10.37,1.16,14.22,3.48c3.91,2.25,6.83,5.37,8.75,9.35
	c1.99,3.98,2.98,8.55,2.98,13.72v2.39c0,0.66-0.23,1.26-0.7,1.79c-0.46,0.46-1.06,0.7-1.79,0.7h-31.82v0.7
	c0.13,3.12,0.89,5.63,2.29,7.56c1.39,1.92,3.41,2.88,6.06,2.88c1.66,0,3.02-0.33,4.08-0.99c1.06-0.73,2.02-1.59,2.88-2.58
	c0.6-0.73,1.06-1.16,1.39-1.29c0.4-0.2,0.99-0.3,1.79-0.3h12.33c0.6,0,1.09,0.2,1.49,0.6c0.46,0.33,0.7,0.8,0.7,1.39
	c0,1.72-0.99,3.71-2.98,5.97c-1.92,2.25-4.74,4.21-8.45,5.87C456.73,330.94,452.35,331.77,447.31,331.77z M455.66,299.66v-0.2
	c0-3.25-0.76-5.8-2.29-7.66c-1.46-1.92-3.51-2.88-6.16-2.88c-2.58,0-4.64,0.96-6.16,2.88c-1.46,1.86-2.19,4.41-2.19,7.66v0.2H455.66
	z"/>
<path class="st0" d="M479.45,330.78c-0.73,0-1.33-0.23-1.79-0.7c-0.46-0.46-0.7-1.06-0.7-1.79v-46.73c0-0.73,0.23-1.33,0.7-1.79
	c0.46-0.46,1.06-0.7,1.79-0.7h10.84c0.73,0,1.33,0.23,1.79,0.7c0.46,0.46,0.7,1.06,0.7,1.79v3.38c1.52-1.99,3.55-3.61,6.06-4.87
	c2.59-1.33,5.47-1.99,8.65-1.99c7.29,0,12.33,2.85,15.11,8.55c1.59-2.52,3.81-4.57,6.66-6.16c2.85-1.59,5.9-2.39,9.15-2.39
	c5.43,0,9.84,1.86,13.22,5.57c3.45,3.65,5.17,9.11,5.17,16.41v28.24c0,0.66-0.23,1.26-0.69,1.79c-0.46,0.46-1.06,0.7-1.79,0.7
	h-11.54c-0.73,0-1.36-0.23-1.89-0.7c-0.46-0.46-0.69-1.06-0.69-1.79v-27.54c0-3.31-0.7-5.7-2.09-7.16
	c-1.33-1.46-3.15-2.19-5.47-2.19c-2.12,0-3.88,0.76-5.27,2.29c-1.39,1.46-2.09,3.81-2.09,7.06v27.54c0,0.66-0.23,1.26-0.7,1.79
	c-0.46,0.46-1.06,0.7-1.79,0.7h-11.53c-0.73,0-1.33-0.23-1.79-0.7c-0.46-0.46-0.7-1.06-0.7-1.79v-27.54c0-3.25-0.73-5.6-2.19-7.06
	c-1.39-1.52-3.18-2.29-5.37-2.29c-2.12,0-3.91,0.76-5.37,2.29c-1.39,1.46-2.09,3.78-2.09,6.96v27.64c0,0.66-0.23,1.26-0.7,1.79
	c-0.46,0.46-1.06,0.7-1.79,0.7H479.45z"/>
<path class="st0" d="M594.13,331.77c-6.63,0-11.77-2.22-15.41-6.66v3.18c0,0.66-0.24,1.26-0.7,1.79c-0.46,0.46-1.06,0.7-1.79,0.7
	H565c-0.66,0-1.26-0.23-1.79-0.7c-0.47-0.53-0.7-1.13-0.7-1.79v-65.62c0-0.73,0.23-1.33,0.7-1.79c0.53-0.46,1.13-0.7,1.79-0.7h12.13
	c0.73,0,1.33,0.23,1.79,0.7c0.46,0.46,0.7,1.06,0.7,1.79v21.28c3.71-3.91,8.55-5.87,14.51-5.87c6.43,0,11.5,2.09,15.21,6.26
	c3.71,4.18,5.7,9.84,5.97,17c0.07,0.86,0.1,2.05,0.1,3.58c0,1.46-0.03,2.62-0.1,3.48c-0.33,7.42-2.32,13.19-5.97,17.3
	C605.7,329.75,600.62,331.77,594.13,331.77z M588.76,318.45c3.12,0,5.34-0.93,6.66-2.78c1.39-1.86,2.19-4.41,2.39-7.66
	c0.13-1.33,0.2-2.35,0.2-3.08c0-0.73-0.07-1.76-0.2-3.08c-0.2-3.25-0.99-5.8-2.39-7.66c-1.32-1.86-3.54-2.78-6.66-2.78
	c-2.92,0-5.14,0.89-6.66,2.68c-1.53,1.79-2.36,4.04-2.48,6.76l-0.1,3.68l0.1,3.78c0.2,2.98,0.99,5.43,2.39,7.36
	C583.46,317.52,585.71,318.45,588.76,318.45z"/>
<path class="st0" d="M622.2,330.78c-0.66,0-1.26-0.23-1.79-0.7c-0.47-0.53-0.7-1.13-0.7-1.79v-65.62c0-0.73,0.23-1.33,0.7-1.79
	c0.53-0.46,1.13-0.7,1.79-0.7h11.73c0.73,0,1.33,0.23,1.79,0.7c0.46,0.46,0.69,1.06,0.69,1.79v65.62c0,0.73-0.23,1.33-0.69,1.79
	c-0.46,0.46-1.06,0.7-1.79,0.7H622.2z"/>
<path class="st0" d="M652.28,349.67c-0.6,0-1.1-0.2-1.49-0.6c-0.4-0.4-0.6-0.89-0.6-1.49c0-0.46,0.1-0.89,0.3-1.29l7.76-18.69
	l-19.09-45.14c-0.2-0.53-0.3-0.93-0.3-1.19c0.13-0.6,0.4-1.09,0.8-1.49c0.4-0.46,0.89-0.7,1.49-0.7h11.33c1.39,0,2.35,0.7,2.88,2.09
	l11.33,28.93l11.63-28.93c0.66-1.39,1.66-2.09,2.98-2.09h11.13c0.6,0,1.1,0.23,1.49,0.7c0.47,0.4,0.7,0.86,0.7,1.39
	c0,0.26-0.1,0.7-0.3,1.29l-28.14,65.12c-0.53,1.39-1.53,2.09-2.98,2.09H652.28z"/>
<path class="st0" d="M689.58,330.78c-0.53,0-1.03-0.2-1.49-0.6c-0.4-0.46-0.6-0.96-0.6-1.49c0-0.4,0.03-0.7,0.1-0.89l23.36-63.83
	c0.2-0.8,0.63-1.46,1.3-1.99c0.66-0.53,1.52-0.8,2.58-0.8h14.71c1.06,0,1.92,0.27,2.59,0.8c0.66,0.53,1.1,1.19,1.29,1.99
	l23.27,63.83l0.2,0.89c0,0.53-0.23,1.03-0.69,1.49c-0.4,0.4-0.89,0.6-1.49,0.6h-12.23c-1.59,0-2.65-0.7-3.18-2.09l-3.88-10.14
	h-26.55l-3.78,10.14c-0.53,1.39-1.62,2.09-3.28,2.09H689.58z M731.43,304.23l-9.25-26.25l-9.25,26.25H731.43z"/>
<path class="st0" d="M761.68,330.78c-0.66,0-1.26-0.23-1.79-0.7c-0.46-0.53-0.7-1.13-0.7-1.79v-64.63c0-0.73,0.24-1.33,0.7-1.79
	c0.53-0.46,1.13-0.7,1.79-0.7H775c0.73,0,1.33,0.23,1.79,0.7c0.53,0.46,0.8,1.06,0.8,1.79v64.63c0,0.73-0.27,1.33-0.8,1.79
	c-0.46,0.46-1.06,0.7-1.79,0.7H761.68z"/>
<g>
	<defs>
		<rect id="SVGID_1_" x="65.27" y="225.63" width="143.61" height="143.61"/>
	</defs>
	<clipPath id="SVGID_2_">
		<use xlink:href="#SVGID_1_"  style="overflow:visible;"/>
	</clipPath>
	<g class="st1">
		
			<radialGradient id="SVGID_3_" cx="7.8314" cy="606.2109" r="4.452" gradientTransform="matrix(-10.5381 25.5522 17.442 7.1933 -10371.7715 -4304.6455)" gradientUnits="userSpaceOnUse">
			<stop  offset="0" style="stop-color:#142167"/>
			<stop  offset="1" style="stop-color:#263DB5"/>
		</radialGradient>
		<path class="st2" d="M78.84,321.67l-11.36,26.71c-3.19,7.48-3.79,16.01,4.2,18.98c1.91,0.72,3.84,1.05,5.78,1.05
			c6.16,0,12.02-3.48,14.44-9.19l2.29-5.38l17.52-41.16l17.44-41.01c4.16-7.29,6.72-18.5,23.06-24.54
			c-12.7-1.63-38.31-4.98-38.57-4.98c-0.16,0.26-1.87,2.86-2.04,3.11c-0.35,0.56-0.71,1.15-0.98,1.77c-0.03,0.05-0.03,0.08-0.05,0.1
			l-31.7,74.48C78.87,321.62,78.84,321.65,78.84,321.67z"/>
		
			<radialGradient id="SVGID_4_" cx="3.9981" cy="599.2925" r="4.452" gradientTransform="matrix(-17.303 18.9426 66.2772 60.5407 -39453.3672 -36090.6914)" gradientUnits="userSpaceOnUse">
			<stop  offset="0" style="stop-color:#4259D4"/>
			<stop  offset="1" style="stop-color:#6A81FC"/>
		</radialGradient>
		<path class="st3" d="M192.45,321.67l11.36,26.71c3.19,7.48,3.79,16.01-4.2,18.98c-1.91,0.72-3.84,1.05-5.78,1.05
			c-6.16,0-12.02-3.48-14.44-9.19l-2.29-5.38l-17.52-41.16l-17.44-41.01c-4.16-7.29-11.19-22.36-29.96-27.23
			c2.37-5.56,10.5-6.51,16.85-6.51h17.22h0.14c0.68,0.03,1.34,0.1,2.04,0.2c0.35,0.05,0.74,0.05,1.09,0.13
			c0.46,0.1,0.9,0.28,1.36,0.41c0.52,0.15,1.04,0.26,1.53,0.46c0.22,0.1,0.44,0.23,0.65,0.33c0.68,0.31,1.34,0.61,1.96,1
			c0.44,0.26,0.79,0.61,1.2,0.92c0.35,0.28,0.76,0.54,1.09,0.85c0.3,0.31,0.57,0.67,0.87,1c0.35,0.41,0.74,0.77,1.04,1.2
			c0.16,0.26,0.3,0.56,0.46,0.82c0.35,0.56,0.71,1.15,0.98,1.77c0.03,0.05,0.03,0.08,0.05,0.1l31.7,74.48
			C192.43,321.62,192.45,321.65,192.45,321.67z"/>
	</g>
</g>
</svg>
