<svg xmlns="http://www.w3.org/2000/svg" fill="none" viewBox="0 0 500 500" class="h-8 w-auto mr-0.5"><path fill="#EE5A46" d="M114.191 344.07c-23.71-5.625-76.875-35.234-92.344-78.32-12.11-33.672-4.883-75.273 16.797-96.758 14.414-14.258 33.125-18.164 52.696-10.898 40.703 15.039 58.398 98.281 58.593 99.101l.274 2.266c.898 24.062-.078 66.484-16.719 80.156-4.102 3.36-8.945 5.117-13.984 5.117-1.758-.039-3.555-.234-5.313-.664Zm-37.89-151.758c-11.29-6.953-17.735-3.242-17.735-3.242-13.672 13.555-16.797 37.461-5.937 63.594 9.921 23.906 37.382 46.094 63.164 51.836 3.554-8.594 1.64-13.281.937-35.078-5.312-23.555-24.297-67.149-40.43-77.11Z"></path><path fill="#CC3F27" d="M182.629 392.664c1.523-2.07 3.515-3.906 6.132-5.117 4.571-2.109 34.297-5.859 67.344-9.492 33.008 3.633 62.774 7.383 67.344 9.492 2.617 1.211 4.609 3.047 6.133 5.117 5.195 7.148 8.281 18.086.781 21.836-11.406 5.703-34.18 13.398-74.258 13.398-40.078 0-62.851-7.695-74.258-13.398-7.5-3.75-4.414-14.648.782-21.836Z"></path><path fill="#EE5A46" d="M185.129 141.141s50.117-16.368 70.976-16.368c20.86 0 70.977 16.368 70.977 16.368 40.039 32.695 84.609 83.984 84.609 132.539 0 51.132-30.508 99.297-78.984 122.109-22.032 10.352-49.727 12.578-76.602 12.578-26.875 0-54.531-2.187-76.601-12.578-48.516-22.812-78.985-70.977-78.985-122.109 0-48.555 44.61-99.844 84.61-132.539Z"></path><path fill="#EE5A46" d="m481.73 163.523-.469-5.664-37.109-2.812s-13.203 11.172-21.25 32.617c-7.578 20.234-13.477 40.859-23.086 42.461l-9.648 1.602s-21.953 4.687-23.086 48.671c-1.133 43.985 23.086 50.899 23.086 50.899s28.906 4.023 51.367-38.555 14.453-71.445 21.68-93.125c7.226-21.68 18.515-36.094 18.515-36.094Z"></path><path fill="#EE5A46" d="M462.746 170.477c11.412 0 20.664-4.845 20.664-10.821s-9.252-10.82-20.664-10.82c-11.413 0-20.664 4.844-20.664 10.82s9.251 10.821 20.664 10.821Z"></path><path fill="#AF2C1B" d="M462.746 165.633c7.939 0 14.375-3.026 14.375-6.758s-6.436-6.758-14.375-6.758-14.375 3.026-14.375 6.758 6.436 6.758 14.375 6.758Z"></path><path fill="#CC3F27" d="M172.238 147.117c20.078-6.719 49.258-10.976 81.758-10.976 31.211 0 59.336 3.906 79.297 10.195a344.917 344.917 0 0 1 20.976 19.492c2.735 2.735-5.195 37.5-100.664 37.5s-102.734-34.453-100.156-37.226a374.906 374.906 0 0 1 18.789-18.985Z"></path><path fill="#FFA726" d="M253.996 195.984c55.422 0 100.351-14.743 100.351-32.929 0-18.187-44.929-32.93-100.351-32.93-55.423 0-100.352 14.743-100.352 32.93 0 18.186 44.929 32.929 100.352 32.929Z"></path><path fill="#EE5A46" d="M337.941 149.148s-31.328-33.359-84.336-33.359c-53.008 0-84.336 33.359-84.336 33.359 0 14.883 37.735 26.954 84.336 26.954 46.602 0 84.336-12.071 84.336-26.954Z"></path><path fill="#EE5A46" d="M253.605 129.109c15.77 0 28.555-12.784 28.555-28.554 0-15.77-12.785-28.555-28.555-28.555s-28.555 12.784-28.555 28.555c0 15.77 12.785 28.554 28.555 28.554Z"></path><path fill="#CC3F27" d="M230.871 117.859c3.945 2.461 7.617 4.336 11.406 5.547a36.452 36.452 0 0 0 22.617 0c3.789-1.211 7.461-3.047 11.406-5.508-1.367 4.493-4.609 8.36-8.671 11.016a25.376 25.376 0 0 1-14.024 4.102c-4.961 0-9.961-1.446-14.023-4.141-4.063-2.695-7.305-6.523-8.711-11.016ZM85.09 197.625c-7.383-4.883-15.352-8.867-23.32-9.883-7.97-1.094-15.313 1.836-20.704 7.617-2.773 2.696-4.766 5.938-6.328 9.688-1.68 3.672-2.695 7.773-3.672 11.875-1.758 8.32-2.695 17.031-3.476 25.937-2.54-8.632-3.399-17.695-2.657-26.836.313-4.57 1.328-9.14 2.813-13.71 1.68-4.415 4.14-9.024 7.773-12.461 3.438-3.399 7.696-6.368 12.578-7.852 4.883-1.445 10.117-1.484 14.805-.195 9.414 2.617 16.875 8.633 22.188 15.82Z"></path><path fill="#FF8E5C" d="M130.871 230.32c9.922-25.039 32.812-31.562 41.523-22.382 14.102 14.843-8.047 43.554-18.164 58.632-7.656 11.407-9.258 34.688-10.195 37.969-3.867 13.281-13.75 4.414-16.836-7.773-4.961-19.532-6.172-41.602 3.672-66.446Z"></path></svg>